<svg xmlns="http://www.w3.org/2000/svg" id="export" class="canvas" preserveAspectRatio="xMidYMid meet" style="position: absolute; margin: 0px; -webkit-tap-highlight-color: rgba(0, 0, 0, 0);" width="201" height="582"><rect id="background" fill="#fff" pointer-events="all" width="201" height="582"/><g id="origin" transform="translate(9.1078125, 9.1078125) scale(1)"><g id="clusters" class="clusters"/><g id="edge-paths" class="edge-paths"><defs><marker id="arrowhead-vee" viewBox="0 0 10 10" refX="9" refY="5" markerUnits="strokeWidth" markerWidth="8" markerHeight="6" orient="auto" style="fill: rgb(0, 0, 0);"><path d="M 0 0 L 10 5 L 0 10 L 4 5 z" style="stroke-width: 1;"/></marker><marker id="arrowhead-vee-select" viewBox="0 0 10 10" refX="9" refY="5" markerUnits="strokeWidth" markerWidth="8" markerHeight="6" orient="auto" style="fill: rgb(238, 0, 0);"><path d="M 0 0 L 10 5 L 0 10 L 4 5 z" style="stroke-width: 1;"/></marker></defs><path class="edge-path" d="M91.078125,23L91.078125,26.666666666666668C91.078125,30.333333333333332,91.078125,37.666666666666664,91.078125,45C91.078125,52.333333333333336,91.078125,59.666666666666664,91.078125,63.333333333333336L91.078125,67" id="edge-serving_default_dense_input:0_int8" style="stroke: rgb(0, 0, 0); stroke-width: 1px; fill: none; marker-end: url(&quot;#arrowhead-vee&quot;);"/><path class="edge-path" d="M91.078125,147L91.078125,150.66666666666666C91.078125,154.33333333333334,91.078125,161.66666666666666,91.078125,169C91.078125,176.33333333333334,91.078125,183.66666666666666,91.078125,187.33333333333334L91.078125,191" id="edge-tfl.fully_connected" style="stroke: rgb(0, 0, 0); stroke-width: 1px; fill: none; marker-end: url(&quot;#arrowhead-vee&quot;);"/><path class="edge-path" d="M91.078125,271L91.078125,274.6666666666667C91.078125,278.3333333333333,91.078125,285.6666666666667,91.078125,293C91.078125,300.3333333333333,91.078125,307.6666666666667,91.078125,311.3333333333333L91.078125,315" id="edge-tfl.fully_connected1" style="stroke: rgb(0, 0, 0); stroke-width: 1px; fill: none; marker-end: url(&quot;#arrowhead-vee&quot;);"/><path class="edge-path" d="M91.078125,395L91.078125,398.6666666666667C91.078125,402.3333333333333,91.078125,409.6666666666667,91.078125,417C91.078125,424.3333333333333,91.078125,431.6666666666667,91.078125,435.3333333333333L91.078125,439" id="edge-tfl.fully_connected2" style="stroke: rgb(0, 0, 0); stroke-width: 1px; fill: none; marker-end: url(&quot;#arrowhead-vee&quot;);"/><path class="edge-path" d="M91.078125,496L91.078125,499.6666666666667C91.078125,503.3333333333333,91.078125,510.6666666666667,91.078125,518C91.078125,525.3333333333334,91.078125,532.6666666666666,91.078125,536.3333333333334L91.078125,540" id="edge-StatefulPartitionedCall:0_int8" style="stroke: rgb(0, 0, 0); stroke-width: 1px; fill: none; marker-end: url(&quot;#arrowhead-vee&quot;);"/></g><g id="edge-labels" class="edge-labels"><g class="edge-label" id="edge-label-edge-serving_default_dense_input:0_int8" transform="translate(104.890625,45)" style="opacity: 1;"><g transform="translate(-8.8125,-7)"><text style="font-family: -apple-system, BlinkMacSystemFont, &quot;Segoe WPC&quot;, &quot;Segoe UI&quot;, Ubuntu, &quot;Droid Sans&quot;, sans-serif, &quot;PingFang SC&quot;; font-size: 10px;"><tspan xml:space="preserve" dy="1em" x="1">1×1</tspan></text></g></g><g class="edge-label" id="edge-label-edge-tfl.fully_connected" transform="translate(105.1953125,169)" style="opacity: 1;"><g transform="translate(-9.1171875,-7)"><text style="font-family: -apple-system, BlinkMacSystemFont, &quot;Segoe WPC&quot;, &quot;Segoe UI&quot;, Ubuntu, &quot;Droid Sans&quot;, sans-serif, &quot;PingFang SC&quot;; font-size: 10px;"><tspan xml:space="preserve" dy="1em" x="1">1×6</tspan></text></g></g><g class="edge-label" id="edge-label-edge-tfl.fully_connected1" transform="translate(105.1953125,293)" style="opacity: 1;"><g transform="translate(-9.1171875,-7)"><text style="font-family: -apple-system, BlinkMacSystemFont, &quot;Segoe WPC&quot;, &quot;Segoe UI&quot;, Ubuntu, &quot;Droid Sans&quot;, sans-serif, &quot;PingFang SC&quot;; font-size: 10px;"><tspan xml:space="preserve" dy="1em" x="1">1×6</tspan></text></g></g><g class="edge-label" id="edge-label-edge-tfl.fully_connected2" transform="translate(105.1953125,417)" style="opacity: 1;"><g transform="translate(-9.1171875,-7)"><text style="font-family: -apple-system, BlinkMacSystemFont, &quot;Segoe WPC&quot;, &quot;Segoe UI&quot;, Ubuntu, &quot;Droid Sans&quot;, sans-serif, &quot;PingFang SC&quot;; font-size: 10px;"><tspan xml:space="preserve" dy="1em" x="1">1×6</tspan></text></g></g><g class="edge-label" id="edge-label-edge-StatefulPartitionedCall:0_int8" transform="translate(104.890625,518)" style="opacity: 1;"><g transform="translate(-8.8125,-7)"><text style="font-family: -apple-system, BlinkMacSystemFont, &quot;Segoe WPC&quot;, &quot;Segoe UI&quot;, Ubuntu, &quot;Droid Sans&quot;, sans-serif, &quot;PingFang SC&quot;; font-size: 10px;"><tspan xml:space="preserve" dy="1em" x="1">1×1</tspan></text></g></g></g><g id="nodes" class="nodes"><g id="node-id-0" class="node graph-node" transform="translate(91.078125,107)" style="opacity: 1;"><g transform="translate(-50,-40)"><g><g class="node-item node-item-type node-item-type-layer" transform="translate(0,0)"><path d="M5,0h90a5,5 0 0 1 5,5v18a0,0 0 0 1 0,0h-100a0,0 0 0 1 0,0v-18a5,5 0 0 1 5,-5z" style="stroke: rgb(0, 0, 0); fill: rgb(51, 85, 136); stroke-width: 0;"/><text x="6" y="16" style="font-family: -apple-system, BlinkMacSystemFont, &quot;Segoe WPC&quot;, &quot;Segoe UI&quot;, Ubuntu, &quot;Droid Sans&quot;, sans-serif, &quot;PingFang SC&quot;; font-size: 11px; text-rendering: geometricprecision; fill: rgb(255, 255, 255);">FullyConnected</text><title>0</title></g><g class="node-attribute" transform="translate(0,23)"><path d="M0,0h100a0,0 0 0 1 0,0v34a0,0 0 0 1 0,0h-100a0,0 0 0 1 0,0v-34a0,0 0 0 1 0,0z" style="stroke: rgb(0, 0, 0); fill: rgb(255, 255, 255); stroke-width: 0;"/><text id="initializer-std.constant" xml:space="preserve" x="6" y="14" style="font-family: -apple-system, BlinkMacSystemFont, &quot;Segoe WPC&quot;, &quot;Segoe UI&quot;, Ubuntu, &quot;Droid Sans&quot;, sans-serif, &quot;PingFang SC&quot;; font-size: 9px; font-weight: normal; text-rendering: geometricprecision;"><title>int8[6,1]</title><tspan style="font-weight: bold;">weights</tspan><tspan>〈6×1〉</tspan></text><text id="initializer-dense/bias" xml:space="preserve" x="6" y="28" style="font-family: -apple-system, BlinkMacSystemFont, &quot;Segoe WPC&quot;, &quot;Segoe UI&quot;, Ubuntu, &quot;Droid Sans&quot;, sans-serif, &quot;PingFang SC&quot;; font-size: 9px; font-weight: normal; text-rendering: geometricprecision;"><title>int32[6]</title><tspan style="font-weight: bold;">bias</tspan><tspan>〈6〉</tspan></text><line class="node" x1="0" x2="100" y1="0" y2="0" style="stroke: rgb(51, 51, 51); fill: none; stroke-width: 1px;"/></g><g class="node-item node-item-type node-item-type-activation" transform="translate(0,57)"><path d="M0,0h100a0,0 0 0 1 0,0v18a5,5 0 0 1 -5,5h-90a5,5 0 0 1 -5,-5v-18a0,0 0 0 1 0,0z" style="stroke: rgb(0, 0, 0); fill: rgb(75, 27, 22); stroke-width: 0;"/><text x="6" y="16" style="font-family: -apple-system, BlinkMacSystemFont, &quot;Segoe WPC&quot;, &quot;Segoe UI&quot;, Ubuntu, &quot;Droid Sans&quot;, sans-serif, &quot;PingFang SC&quot;; font-size: 11px; text-rendering: geometricprecision; fill: rgb(255, 255, 255);">Relu</text></g><line class="node" x1="0" x2="100" y1="57" y2="57" style="stroke: rgb(51, 51, 51); fill: none; stroke-width: 1px;"/><path class="node border" d="M5,0h90a5,5 0 0 1 5,5v70a5,5 0 0 1 -5,5h-90a5,5 0 0 1 -5,-5v-70a5,5 0 0 1 5,-5z" style="stroke: rgb(51, 51, 51); fill: none; stroke-width: 1px;"/></g></g></g><g id="node-id-1" class="node graph-node" transform="translate(91.078125,231)" style="opacity: 1;"><g transform="translate(-50,-40)"><g><g class="node-item node-item-type node-item-type-layer" transform="translate(0,0)"><path d="M5,0h90a5,5 0 0 1 5,5v18a0,0 0 0 1 0,0h-100a0,0 0 0 1 0,0v-18a5,5 0 0 1 5,-5z" style="stroke: rgb(0, 0, 0); fill: rgb(51, 85, 136); stroke-width: 0;"/><text x="6" y="16" style="font-family: -apple-system, BlinkMacSystemFont, &quot;Segoe WPC&quot;, &quot;Segoe UI&quot;, Ubuntu, &quot;Droid Sans&quot;, sans-serif, &quot;PingFang SC&quot;; font-size: 11px; text-rendering: geometricprecision; fill: rgb(255, 255, 255);">FullyConnected</text><title>1</title></g><g class="node-attribute" transform="translate(0,23)"><path d="M0,0h100a0,0 0 0 1 0,0v34a0,0 0 0 1 0,0h-100a0,0 0 0 1 0,0v-34a0,0 0 0 1 0,0z" style="stroke: rgb(0, 0, 0); fill: rgb(255, 255, 255); stroke-width: 0;"/><text id="initializer-std.constant1" xml:space="preserve" x="6" y="14" style="font-family: -apple-system, BlinkMacSystemFont, &quot;Segoe WPC&quot;, &quot;Segoe UI&quot;, Ubuntu, &quot;Droid Sans&quot;, sans-serif, &quot;PingFang SC&quot;; font-size: 9px; font-weight: normal; text-rendering: geometricprecision;"><title>int8[6,6]</title><tspan style="font-weight: bold;">weights</tspan><tspan>〈6×6〉</tspan></text><text id="initializer-dense_1/bias" xml:space="preserve" x="6" y="28" style="font-family: -apple-system, BlinkMacSystemFont, &quot;Segoe WPC&quot;, &quot;Segoe UI&quot;, Ubuntu, &quot;Droid Sans&quot;, sans-serif, &quot;PingFang SC&quot;; font-size: 9px; font-weight: normal; text-rendering: geometricprecision;"><title>int32[6]</title><tspan style="font-weight: bold;">bias</tspan><tspan>〈6〉</tspan></text><line class="node" x1="0" x2="100" y1="0" y2="0" style="stroke: rgb(51, 51, 51); fill: none; stroke-width: 1px;"/></g><g class="node-item node-item-type node-item-type-activation" transform="translate(0,57)"><path d="M0,0h100a0,0 0 0 1 0,0v18a5,5 0 0 1 -5,5h-90a5,5 0 0 1 -5,-5v-18a0,0 0 0 1 0,0z" style="stroke: rgb(0, 0, 0); fill: rgb(75, 27, 22); stroke-width: 0;"/><text x="6" y="16" style="font-family: -apple-system, BlinkMacSystemFont, &quot;Segoe WPC&quot;, &quot;Segoe UI&quot;, Ubuntu, &quot;Droid Sans&quot;, sans-serif, &quot;PingFang SC&quot;; font-size: 11px; text-rendering: geometricprecision; fill: rgb(255, 255, 255);">Relu</text></g><line class="node" x1="0" x2="100" y1="57" y2="57" style="stroke: rgb(51, 51, 51); fill: none; stroke-width: 1px;"/><path class="node border" d="M5,0h90a5,5 0 0 1 5,5v70a5,5 0 0 1 -5,5h-90a5,5 0 0 1 -5,-5v-70a5,5 0 0 1 5,-5z" style="stroke: rgb(51, 51, 51); fill: none; stroke-width: 1px;"/></g></g></g><g id="node-id-2" class="node graph-node" transform="translate(91.078125,355)" style="opacity: 1;"><g transform="translate(-50,-40)"><g><g class="node-item node-item-type node-item-type-layer" transform="translate(0,0)"><path d="M5,0h90a5,5 0 0 1 5,5v18a0,0 0 0 1 0,0h-100a0,0 0 0 1 0,0v-18a5,5 0 0 1 5,-5z" style="stroke: rgb(0, 0, 0); fill: rgb(51, 85, 136); stroke-width: 0;"/><text x="6" y="16" style="font-family: -apple-system, BlinkMacSystemFont, &quot;Segoe WPC&quot;, &quot;Segoe UI&quot;, Ubuntu, &quot;Droid Sans&quot;, sans-serif, &quot;PingFang SC&quot;; font-size: 11px; text-rendering: geometricprecision; fill: rgb(255, 255, 255);">FullyConnected</text><title>2</title></g><g class="node-attribute" transform="translate(0,23)"><path d="M0,0h100a0,0 0 0 1 0,0v34a0,0 0 0 1 0,0h-100a0,0 0 0 1 0,0v-34a0,0 0 0 1 0,0z" style="stroke: rgb(0, 0, 0); fill: rgb(255, 255, 255); stroke-width: 0;"/><text id="initializer-std.constant2" xml:space="preserve" x="6" y="14" style="font-family: -apple-system, BlinkMacSystemFont, &quot;Segoe WPC&quot;, &quot;Segoe UI&quot;, Ubuntu, &quot;Droid Sans&quot;, sans-serif, &quot;PingFang SC&quot;; font-size: 9px; font-weight: normal; text-rendering: geometricprecision;"><title>int8[6,6]</title><tspan style="font-weight: bold;">weights</tspan><tspan>〈6×6〉</tspan></text><text id="initializer-dense_2/bias" xml:space="preserve" x="6" y="28" style="font-family: -apple-system, BlinkMacSystemFont, &quot;Segoe WPC&quot;, &quot;Segoe UI&quot;, Ubuntu, &quot;Droid Sans&quot;, sans-serif, &quot;PingFang SC&quot;; font-size: 9px; font-weight: normal; text-rendering: geometricprecision;"><title>int32[6]</title><tspan style="font-weight: bold;">bias</tspan><tspan>〈6〉</tspan></text><line class="node" x1="0" x2="100" y1="0" y2="0" style="stroke: rgb(51, 51, 51); fill: none; stroke-width: 1px;"/></g><g class="node-item node-item-type node-item-type-activation" transform="translate(0,57)"><path d="M0,0h100a0,0 0 0 1 0,0v18a5,5 0 0 1 -5,5h-90a5,5 0 0 1 -5,-5v-18a0,0 0 0 1 0,0z" style="stroke: rgb(0, 0, 0); fill: rgb(75, 27, 22); stroke-width: 0;"/><text x="6" y="16" style="font-family: -apple-system, BlinkMacSystemFont, &quot;Segoe WPC&quot;, &quot;Segoe UI&quot;, Ubuntu, &quot;Droid Sans&quot;, sans-serif, &quot;PingFang SC&quot;; font-size: 11px; text-rendering: geometricprecision; fill: rgb(255, 255, 255);">Relu</text></g><line class="node" x1="0" x2="100" y1="57" y2="57" style="stroke: rgb(51, 51, 51); fill: none; stroke-width: 1px;"/><path class="node border" d="M5,0h90a5,5 0 0 1 5,5v70a5,5 0 0 1 -5,5h-90a5,5 0 0 1 -5,-5v-70a5,5 0 0 1 5,-5z" style="stroke: rgb(51, 51, 51); fill: none; stroke-width: 1px;"/></g></g></g><g id="node-id-3" class="node graph-node" transform="translate(91.078125,467.5)" style="opacity: 1;"><g transform="translate(-50,-28.5)"><g><g class="node-item node-item-type node-item-type-layer" transform="translate(0,0)"><path d="M5,0h90a5,5 0 0 1 5,5v18a0,0 0 0 1 0,0h-100a0,0 0 0 1 0,0v-18a5,5 0 0 1 5,-5z" style="stroke: rgb(0, 0, 0); fill: rgb(51, 85, 136); stroke-width: 0;"/><text x="6" y="16" style="font-family: -apple-system, BlinkMacSystemFont, &quot;Segoe WPC&quot;, &quot;Segoe UI&quot;, Ubuntu, &quot;Droid Sans&quot;, sans-serif, &quot;PingFang SC&quot;; font-size: 11px; text-rendering: geometricprecision; fill: rgb(255, 255, 255);">FullyConnected</text><title>3</title></g><g class="node-attribute" transform="translate(0,23)"><path d="M0,0h100a0,0 0 0 1 0,0v29a5,5 0 0 1 -5,5h-90a5,5 0 0 1 -5,-5v-29a0,0 0 0 1 0,0z" style="stroke: rgb(0, 0, 0); fill: rgb(255, 255, 255); stroke-width: 0;"/><text id="initializer-std.constant3" xml:space="preserve" x="6" y="14" style="font-family: -apple-system, BlinkMacSystemFont, &quot;Segoe WPC&quot;, &quot;Segoe UI&quot;, Ubuntu, &quot;Droid Sans&quot;, sans-serif, &quot;PingFang SC&quot;; font-size: 9px; font-weight: normal; text-rendering: geometricprecision;"><title>int8[1,6]</title><tspan style="font-weight: bold;">weights</tspan><tspan>〈1×6〉</tspan></text><text id="initializer-dense_3/bias" xml:space="preserve" x="6" y="28" style="font-family: -apple-system, BlinkMacSystemFont, &quot;Segoe WPC&quot;, &quot;Segoe UI&quot;, Ubuntu, &quot;Droid Sans&quot;, sans-serif, &quot;PingFang SC&quot;; font-size: 9px; font-weight: normal; text-rendering: geometricprecision;"><title>int32[1]</title><tspan style="font-weight: bold;">bias</tspan><tspan>〈1〉</tspan></text><line class="node" x1="0" x2="100" y1="0" y2="0" style="stroke: rgb(51, 51, 51); fill: none; stroke-width: 1px;"/></g><path class="node border" d="M5,0h90a5,5 0 0 1 5,5v47a5,5 0 0 1 -5,5h-90a5,5 0 0 1 -5,-5v-47a5,5 0 0 1 5,-5z" style="stroke: rgb(51, 51, 51); fill: none; stroke-width: 1px;"/></g></g></g><g id="input-name-serving_default_dense_input:0_int8" class="node graph-input" transform="translate(91.078125,11.5)" style="opacity: 1;"><g transform="translate(-91.078125,-11.5)"><g><g class="node-item graph-item-input" transform="translate(0,0)"><path d="M5,0h172.15625a5,5 0 0 1 5,5v13a5,5 0 0 1 -5,5h-172.15625a5,5 0 0 1 -5,-5v-13a5,5 0 0 1 5,-5z" style="stroke: rgb(0, 0, 0); fill: rgb(238, 238, 238); stroke-width: 0;"/><text x="6" y="16" style="font-family: -apple-system, BlinkMacSystemFont, &quot;Segoe WPC&quot;, &quot;Segoe UI&quot;, Ubuntu, &quot;Droid Sans&quot;, sans-serif, &quot;PingFang SC&quot;; font-size: 11px; text-rendering: geometricprecision;">serving_default_dense_input:0_int8</text><title>int8[1,1]</title></g><path class="node border" d="M5,0h172.15625a5,5 0 0 1 5,5v13a5,5 0 0 1 -5,5h-172.15625a5,5 0 0 1 -5,-5v-13a5,5 0 0 1 5,-5z" style="stroke: rgb(51, 51, 51); fill: none; stroke-width: 1px;"/></g></g></g><g class="node" transform="translate(91.078125,551.5)" style="opacity: 1;"><g transform="translate(-76.375,-11.5)"><g><g class="node-item graph-item-output" transform="translate(0,0)"><path d="M5,0h142.75a5,5 0 0 1 5,5v13a5,5 0 0 1 -5,5h-142.75a5,5 0 0 1 -5,-5v-13a5,5 0 0 1 5,-5z" style="stroke: rgb(0, 0, 0); fill: rgb(238, 238, 238); stroke-width: 0;"/><text x="6" y="16" style="font-family: -apple-system, BlinkMacSystemFont, &quot;Segoe WPC&quot;, &quot;Segoe UI&quot;, Ubuntu, &quot;Droid Sans&quot;, sans-serif, &quot;PingFang SC&quot;; font-size: 11px; text-rendering: geometricprecision;">StatefulPartitionedCall:0_int8</text><title>int8[1,1]</title></g><path class="node border" d="M5,0h142.75a5,5 0 0 1 5,5v13a5,5 0 0 1 -5,5h-142.75a5,5 0 0 1 -5,-5v-13a5,5 0 0 1 5,-5z" style="stroke: rgb(51, 51, 51); fill: none; stroke-width: 1px;"/></g></g></g></g></g></svg>